<svg width="263" height="26" viewBox="0 0 263 26" fill="none" xmlns="http://www.w3.org/2000/svg">
<path d="M25.103 25H20.285L15.533 7.015H16.094L11.309 25H6.524L0.254 1.405H5.039L9.56 21.106H8.57L13.85 1.405H17.843L23.09 21.106H22.232L26.72 1.405H31.34L25.103 25ZM50.3199 19.852H37.0209V16.057H50.3199V19.852ZM55.0059 25H50.1879L42.9939 4.606H44.2809L37.0539 25H32.4339L41.2449 1.405H46.1949L55.0059 25ZM66.7544 25H62.3324V4.936H66.7544V25ZM73.6514 5.266H55.4354V1.405H73.6514V5.266ZM94.47 18.103L97.374 21.106C96.362 22.492 95.053 23.581 93.447 24.373C91.841 25.143 90.136 25.528 88.332 25.528C86.638 25.528 85.076 25.231 83.646 24.637C82.216 24.021 80.962 23.163 79.884 22.063C78.828 20.963 78.014 19.654 77.442 18.136C76.87 16.618 76.584 14.968 76.584 13.186C76.584 11.404 76.87 9.765 77.442 8.269C78.036 6.751 78.861 5.442 79.917 4.342C80.973 3.242 82.227 2.395 83.679 1.801C85.153 1.185 86.748 0.877 88.464 0.877C90.268 0.877 91.94 1.262 93.48 2.032C95.042 2.78 96.34 3.869 97.374 5.299L94.47 8.302C93.766 7.202 92.886 6.355 91.83 5.761C90.796 5.167 89.663 4.87 88.431 4.87C87.045 4.87 85.802 5.222 84.702 5.926C83.624 6.63 82.777 7.609 82.161 8.863C81.567 10.117 81.27 11.558 81.27 13.186C81.27 14.814 81.567 16.266 82.161 17.542C82.777 18.796 83.624 19.775 84.702 20.479C85.78 21.183 87.023 21.535 88.431 21.535C89.663 21.535 90.796 21.238 91.83 20.644C92.886 20.05 93.766 19.203 94.47 18.103ZM117.293 25V1.405H121.748V25H117.293ZM107.096 25H102.641V1.405H107.096V25ZM106.766 14.803V10.942H117.59V14.803H106.766ZM139.332 25.528C137.616 25.528 136.032 25.22 134.58 24.604C133.128 23.988 131.863 23.13 130.785 22.03C129.729 20.93 128.904 19.632 128.31 18.136C127.738 16.618 127.452 14.968 127.452 13.186C127.452 11.404 127.738 9.765 128.31 8.269C128.904 6.773 129.729 5.475 130.785 4.375C131.863 3.275 133.128 2.417 134.58 1.801C136.032 1.185 137.616 0.877 139.332 0.877C141.048 0.877 142.621 1.185 144.051 1.801C145.503 2.417 146.757 3.286 147.813 4.408C148.891 5.508 149.727 6.806 150.321 8.302C150.915 9.776 151.212 11.404 151.212 13.186C151.212 14.968 150.915 16.607 150.321 18.103C149.727 19.599 148.891 20.908 147.813 22.03C146.757 23.13 145.503 23.988 144.051 24.604C142.621 25.22 141.048 25.528 139.332 25.528ZM139.332 21.535C140.762 21.535 142.016 21.172 143.094 20.446C144.172 19.72 145.008 18.73 145.602 17.476C146.218 16.222 146.526 14.792 146.526 13.186C146.526 11.558 146.218 10.128 145.602 8.896C145.008 7.642 144.172 6.663 143.094 5.959C142.016 5.233 140.762 4.87 139.332 4.87C137.924 4.87 136.67 5.233 135.57 5.959C134.492 6.663 133.645 7.642 133.029 8.896C132.435 10.128 132.138 11.558 132.138 13.186C132.138 14.792 132.435 16.233 133.029 17.509C133.645 18.763 134.492 19.753 135.57 20.479C136.67 21.183 137.924 21.535 139.332 21.535ZM165.788 25H161.333V15.43L152.852 1.405H158.099L164.006 12.163H163.313L169.286 1.405H174.269L165.788 15.463V25ZM176.212 21.172L179.149 18.169C179.677 18.895 180.315 19.522 181.063 20.05C181.833 20.578 182.658 20.985 183.538 21.271C184.44 21.535 185.364 21.667 186.31 21.667C187.762 21.667 188.906 21.381 189.742 20.809C190.6 20.215 191.029 19.412 191.029 18.4C191.029 17.476 190.622 16.75 189.808 16.222C189.016 15.694 187.663 15.276 185.749 14.968C182.801 14.528 180.634 13.758 179.248 12.658C177.884 11.558 177.202 10.062 177.202 8.17C177.202 6.696 177.576 5.42 178.324 4.342C179.072 3.242 180.106 2.395 181.426 1.801C182.768 1.185 184.297 0.877 186.013 0.877C187.971 0.877 189.764 1.24 191.392 1.966C193.02 2.67 194.395 3.682 195.517 5.002L192.679 7.972C191.821 6.916 190.831 6.113 189.709 5.563C188.609 4.991 187.388 4.705 186.046 4.705C184.726 4.705 183.67 4.98 182.878 5.53C182.086 6.058 181.69 6.806 181.69 7.774C181.69 8.61 182.075 9.259 182.845 9.721C183.615 10.183 184.935 10.568 186.805 10.876C189.797 11.36 191.997 12.196 193.405 13.384C194.835 14.55 195.55 16.145 195.55 18.169C195.55 19.621 195.165 20.908 194.395 22.03C193.625 23.13 192.536 23.988 191.128 24.604C189.72 25.22 188.081 25.528 186.211 25.528C184.187 25.528 182.317 25.154 180.601 24.406C178.885 23.658 177.422 22.58 176.212 21.172ZM210.56 25H206.138V4.936H210.56V25ZM217.457 5.266H199.241V1.405H217.457V5.266ZM238.155 25H222.447V1.405H238.155V5.2H226.902V21.205H238.155V25ZM237.561 14.968H226.572V11.14H237.561V14.968ZM248.065 25H243.61V1.405H252.685C254.269 1.405 255.655 1.713 256.843 2.329C258.053 2.923 258.988 3.759 259.648 4.837C260.33 5.915 260.671 7.18 260.671 8.632C260.671 10.062 260.33 11.327 259.648 12.427C258.988 13.505 258.053 14.352 256.843 14.968C255.655 15.562 254.269 15.859 252.685 15.859H247.735V12.031H252.685C253.763 12.031 254.61 11.723 255.226 11.107C255.864 10.491 256.183 9.666 256.183 8.632C256.183 7.554 255.864 6.718 255.226 6.124C254.61 5.508 253.763 5.2 252.685 5.2H248.065V25ZM262.981 25H257.569L249.814 14.011H254.896L262.981 25Z" fill="#191919"/>
</svg>
