<?xml version="1.0" encoding="UTF-8"?>
<svg id="authenticity-guarantee" xmlns="http://www.w3.org/2000/svg" width="80" height="80" version="1.1" viewBox="0 0 80 80">
  <!-- Generator: Adobe Illustrator 29.1.0, SVG Export Plug-In . SVG Version: 2.1.0 Build 142)  -->
  <defs>
    <style>
      .st0 {
        fill: #336ecc;
      }

      .st1 {
        fill: #374e80;
      }
    </style>
  </defs>
  <path class="st1" d="M65.03,70.75h-28.03v-1.5h28.03c.14,0,.25-.11.25-.25v-15h1.5v15c0,.96-.79,1.75-1.75,1.75Z"/>
  <g>
    <path class="st1" d="M65.03,4.25H14.97c-.96,0-1.75.79-1.75,1.75v15h1.5V6c0-.14.11-.25.25-.25h50.05c.14,0,.25.11.25.25v42h1.5V6c0-.96-.79-1.75-1.75-1.75h.01Z"/>
    <path class="st1" d="M14.72,69V27h-1.5v42c0,.96.79,1.75,1.75,1.75h7.03v-1.5h-7.03c-.14,0-.25-.11-.25-.25Z"/>
    <path class="st1" d="M39.02,20.01l-.1.1.82,1.24h3.76l.77-1.34c-.05-.05-.73.28-.87.32-1.45.43-3.01.33-4.38-.32Z"/>
    <path class="st1" d="M43.04,12.15c.45.1.8.34,1.24.41l-.68-1.29h-3.92l-.76,1.25c0,.16.68-.21.74-.23,1.09-.37,2.25-.41,3.38-.15v.01Z"/>
    <path class="st1" d="M37.89,16.57c.23,2.98,4,3.52,6.17,2.23.22-.13.38-.31.6-.4l-.68-.84c-1.64,1.32-5.14,1.13-4.8-1.63.27-2.17,3.4-2.05,4.8-1.09l.67-.79c-2.27-1.85-7.03-1.05-6.76,2.51v.01Z"/>
    <rect class="st1" x="23.02" y="30.45" width="12.38" height=".8"/>
    <rect class="st1" x="23.02" y="36.61" width="33.98" height=".8"/>
    <rect class="st1" x="23.02" y="42.66" width="33.98" height=".8"/>
  </g>
  <g>
    <path class="st0" d="M32.25,73.85l-2.76-2.41c-.28-.25-.71-.25-.99,0l-2.76,2.41v-5.99h-1.5v7.64c0,.29.17.56.44.68s.58.07.8-.12l3.51-3.07,3.51,3.07c.14.12.32.19.49.19.1,0,.21-.02.31-.07.27-.12.44-.39.44-.68v-7.64h-1.5v5.99h.01Z"/>
    <path class="st0" d="M29.2,50.85c-4.27,0-7.75,3.48-7.75,7.75s3.48,7.75,7.75,7.75,7.75-3.48,7.75-7.75-3.48-7.75-7.75-7.75ZM29.2,64.85c-3.45,0-6.25-2.8-6.25-6.25s2.8-6.25,6.25-6.25,6.25,2.8,6.25,6.25-2.8,6.25-6.25,6.25Z"/>
  </g>
</svg>