<?xml version="1.0" encoding="UTF-8"?>
<svg id="dealer-guidelines" xmlns="http://www.w3.org/2000/svg" width="80" height="80" version="1.1" viewBox="0 0 80 80">
  <!-- Generator: Adobe Illustrator 29.1.0, SVG Export Plug-In . SVG Version: 2.1.0 Build 142)  -->
  <defs>
    <style>
      .st0 {
        fill: #336ecc;
      }

      .st1 {
        fill: #374e80;
      }
    </style>
  </defs>
  <g>
    <path class="st1" d="M14.72,69V27h-1.5v42c0,.96.79,1.75,1.75,1.75h20.03v-1.5H14.97c-.14,0-.25-.11-.25-.25Z"/>
    <path class="st1" d="M65.03,4.25H14.97c-.96,0-1.75.79-1.75,1.75v15h1.5V6c0-.14.11-.25.25-.25h50.05c.14,0,.25.11.25.25v28h1.5V6c0-.96-.79-1.75-1.75-1.75h.01Z"/>
    <path class="st1" d="M37.89,16.57c.23,2.98,4,3.52,6.17,2.23.22-.13.38-.31.6-.4l-.68-.84c-1.64,1.32-5.14,1.13-4.8-1.63.27-2.17,3.4-2.05,4.8-1.09l.67-.79c-2.27-1.85-7.03-1.05-6.76,2.51v.01Z"/>
    <path class="st1" d="M43.04,12.15c.45.1.8.34,1.24.41l-.68-1.29h-3.92l-.76,1.25c0,.16.68-.21.74-.23,1.09-.37,2.25-.41,3.38-.15v.01Z"/>
    <path class="st1" d="M39.02,20.01l-.1.1.82,1.24h3.76l.77-1.34c-.05-.05-.73.28-.87.32-1.45.43-3.01.33-4.38-.32Z"/>
    <rect class="st1" x="23.02" y="30.45" width="12.38" height=".8"/>
    <rect class="st1" x="23.02" y="36.61" width="33.98" height=".8"/>
    <rect class="st1" x="23.02" y="42.66" width="33.98" height=".8"/>
  </g>
  <g>
    <path class="st0" d="M75.53,44.13l-5.66-5.66c-.28-.28-.78-.28-1.06,0l-28.28,28.28c-.09.09-.16.21-.19.33l-2.12,7.78c-.07.26,0,.54.19.73.14.14.33.22.53.22.07,0,.13,0,.2-.03l7.78-2.12c.13-.03.24-.1.33-.19l28.28-28.28c.29-.29.29-.77,0-1.06ZM46.33,72.27l-6.32,1.72,1.72-6.32,22.91-22.91,4.6,4.6s-22.91,22.91-22.91,22.91ZM69.8,48.79l-4.6-4.6,4.14-4.14,4.6,4.6-4.14,4.14Z"/>
    <path class="st0" d="M38.4,57.96c-.02-.22-.22-.38-.44-.35-.46.05-.66-.15-1.04-.57-.32-.35-.71-.79-1.4-.98-.83-.23-1.34.24-1.71.59-.4.38-.58.49-.93.34-.18-.08-.2-.16-.25-.43-.05-.28-.13-.76-.73-.92-.81-.21-1.3.55-1.65,1.11-.47.74-.6.82-.82.69-.23-.13-.09-.76.02-1.22.14-.62.3-1.31-.25-1.59-.73-.36-1.41.69-2.77,2.89-.66,1.07-2.04,3.3-2.44,3.32,0-.02-.17-.42.71-2.44.89-2.04,2.34-4.62,3.69-6.78,2.29-2.18,3.83-4.07,3.69-4.66-.05-.22-.23-.37-.45-.38h-.02c-.69,0-2.24,2.02-3.83,4.53-2.23,2.13-5.3,4.66-8.57,6.52-.19.11-.26.35-.15.54.11.19.35.26.54.15,2.26-1.29,4.68-3.09,6.78-4.89-1.42,2.48-2.66,4.99-3.04,6.31-.11.39-.41,1.41.22,1.75.12.06.24.09.37.09.93,0,1.99-1.71,3.19-3.65.52-.84,1.26-2.04,1.67-2.45-.02.16-.07.38-.11.54-.16.7-.38,1.66.37,2.09.95.55,1.52-.36,1.9-.96.32-.5.54-.83.77-.76.09.02.1.03.15.28.05.29.14.77.73,1.02.87.37,1.4-.13,1.79-.49.36-.34.57-.51.95-.41.46.13.74.43,1.02.75.39.43.83.92,1.72.83.22-.02.38-.22.35-.44l-.03.03Z"/>
    <path class="st0" d="M41.85,58.37c.05.02.1.03.15.03s.11,0,.15-.03c.05-.02.1-.05.13-.09.04-.03.07-.08.09-.13s.03-.1.03-.15-.01-.1-.03-.15-.05-.09-.09-.13c-.03-.04-.08-.07-.13-.09-.09-.04-.21-.04-.3,0-.05.02-.09.05-.13.09s-.07.08-.09.13-.03.1-.03.15c0,.11.04.21.12.28.04.04.08.07.13.09Z"/>
  </g>
</svg>