<?xml version="1.0" encoding="UTF-8"?>
<svg id="Illustration" xmlns="http://www.w3.org/2000/svg" width="80" height="80" version="1.1" viewBox="0 0 80 80">
  <!-- Generator: Adobe Illustrator 29.1.0, SVG Export Plug-In . SVG Version: 2.1.0 Build 142)  -->
  <defs>
    <style>
      .st0 {
        fill: #336ecc;
      }

      .st1 {
        fill: #374e80;
      }
    </style>
  </defs>
  <g>
    <path class="st1" d="M64.22,27.77l-6.11-12.21c-.37-.75-1.28-1.31-2.12-1.31h-31.99c-.83,0-1.74.56-2.12,1.31l-1.05,2.11,1.34.67,1.05-2.11c.12-.24.51-.48.78-.48h12.14l-1.84,12.85h-17.25c.02-.05.04-.11.06-.16l2.05-4.11-1.34-.67-2.05,4.11c-.3.6-.53,1.56-.53,2.23v3h1.5v-3c0-.17.03-.38.07-.6h17.43v5.6h1.5v-5.6h8.5v6.85h-5.25v1.5h6c.41,0,.75-.34.75-.75v-7.6h17.43c.04.22.07.43.07.6v7h1.5v-7c0-.67-.23-1.63-.53-2.23h.01ZM37.65,15.75h4.7l1.84,12.85h-8.37l1.84-12.85h-.01ZM45.7,28.6l-1.84-12.85h12.14c.27,0,.66.24.78.48l6.11,12.21s.04.11.06.16c0,0-17.25,0-17.25,0Z"/>
    <path class="st1" d="M63.25,62c0,.14-.11.25-.25.25h-25v1.5h25c.96,0,1.75-.79,1.75-1.75v-17h-1.5v17Z"/>
    <path class="st1" d="M55.3,58v-9.79l4.22,4.22.57-.57-4.47-4.47c-.4-.39-1.04-.39-1.43,0l-4.47,4.47.57.57,4.22-4.22v9.79h.8-.01Z"/>
  </g>
  <g>
    <path class="st0" d="M36.22,38.64l-13.27-4.44c-.78-.26-1.6-.26-2.38,0l-13.28,4.47c-.76.26-1.28.98-1.28,1.79v14.72c0,9.5,12.22,16.28,14.66,17.54.29.16.63.25.97.27h.12c.38,0,.75-.09,1.08-.27,1.23-.64,2.45-1.35,3.61-2.09l-.81-1.26c-1.12.72-2.3,1.4-3.49,2.03-.1.05-.21.08-.32.09-.15-.01-.32-.03-.46-.1-2.31-1.19-13.86-7.58-13.86-16.21v-14.72c0-.17.11-.31.26-.37l13.28-4.47c.46-.16.96-.16,1.42,0l13.28,4.44c.16.05.26.2.26.37v14.75c0,3.55-1.85,7.08-5.51,10.47l1.02,1.1c3.97-3.69,5.99-7.58,5.99-11.57v-14.74c0-.82-.51-1.54-1.28-1.8h-.01Z"/>
    <path class="st0" d="M32.26,42.85l-10.49-3.51-10.5,3.54v12.3c0,3.12,2.58,6.09,4.74,8.03,1.99,1.78,4.11,3.16,5.55,4l.2.12.2-.12c3.09-1.8,10.29-6.59,10.29-12.03v-12.32l.01-.01ZM31.46,55.17c0,4.91-6.62,9.4-9.69,11.22-1.39-.83-3.37-2.13-5.22-3.78-2.04-1.83-4.48-4.61-4.48-7.43v-11.72l9.7-3.27,9.68,3.24v11.75l.01-.01Z"/>
    <polygon class="st0" points="16.28 52.22 15.72 52.78 20.5 57.57 28.28 49.78 27.72 49.22 20.5 56.43 16.28 52.22"/>
  </g>
</svg>