<?xml version="1.0" encoding="UTF-8"?>
<svg id="Illustration" xmlns="http://www.w3.org/2000/svg" width="80" height="80" version="1.1" viewBox="0 0 80 80">
  <!-- Generator: Adobe Illustrator 29.1.0, SVG Export Plug-In . SVG Version: 2.1.0 Build 142)  -->
  <defs>
    <style>
      .st0 {
        fill: #336ecc;
      }

      .st1 {
        fill: #374e80;
      }
    </style>
  </defs>
  <g>
    <path class="st1" d="M7.75,21.59c0-.14.11-.25.25-.25h39.84v-1.5H8c-.96,0-1.75.79-1.75,1.75v3.41h1.5v-3.41Z"/>
    <path class="st1" d="M7.75,53.58v-21.51h-1.5v21.51c0,.96.79,1.75,1.75,1.75h10v-1.5h-10c-.14,0-.25-.11-.25-.25Z"/>
    <path class="st1" d="M19.58,26.56h26.7c.13,2,1.27,3.82,3.03,4.81l.39-.7c-1.63-.92-2.64-2.65-2.64-4.52,0-.22-.18-.4-.4-.4h-27.47c-.22,0-.4.18-.4.4,0,2.86-2.33,5.19-5.19,5.19-.22,0-.4.18-.4.4v11.68c0,.22.18.4.4.4,1.61,0,3.09.72,4.08,1.99l.63-.49c-1.06-1.35-2.62-2.17-4.31-2.28v-10.9c2.98-.2,5.38-2.59,5.57-5.57l.01-.01Z"/>
    <path class="st1" d="M73.73,51.76v-15.76c0-.96-.79-1.75-1.75-1.75H22c-.96,0-1.75.79-1.75,1.75v31.99c0,.96.79,1.75,1.75,1.75h49.98c.96,0,1.75-.79,1.75-1.75v-7h-1.5v7c0,.14-.11.25-.25.25H22c-.14,0-.25-.11-.25-.25v-31.99c0-.14.11-.25.25-.25h49.98c.14,0,.25.11.25.25v15.76s1.5,0,1.5,0Z"/>
    <path class="st1" d="M46.93,46.09c-3.3,0-5.99,2.69-5.99,5.99s2.69,5.99,5.99,5.99,5.99-2.69,5.99-5.99-2.69-5.99-5.99-5.99ZM46.93,57.27c-2.86,0-5.19-2.33-5.19-5.19s2.33-5.19,5.19-5.19,5.19,2.33,5.19,5.19-2.33,5.19-5.19,5.19Z"/>
    <path class="st1" d="M61.06,40.58c0-.22-.18-.4-.4-.4h-27.47c-.22,0-.4.18-.4.4,0,2.86-2.33,5.19-5.19,5.19-.22,0-.4.18-.4.4v11.68c0,.22.18.4.4.4,2.86,0,5.19,2.33,5.19,5.19,0,.22.18.4.4.4h27.47c.22,0,.4-.18.4-.4,0-2.86,2.33-5.19,5.19-5.19.22,0,.4-.18.4-.4v-11.68c0-.22-.18-.4-.4-.4-2.86,0-5.19-2.33-5.19-5.19ZM65.85,57.46c-2.98.2-5.38,2.59-5.57,5.57h-26.7c-.2-2.98-2.59-5.38-5.57-5.57v-10.9c2.98-.2,5.38-2.59,5.57-5.57h26.7c.2,2.98,2.59,5.38,5.57,5.57v10.9Z"/>
  </g>
  <g>
    <path class="st0" d="M69.07,17.59h-9.79l4.22-4.22-.57-.57-4.47,4.47c-.39.4-.39,1.04,0,1.43l4.47,4.47.57-.57-4.22-4.22h9.79v-.8.01Z"/>
    <path class="st0" d="M75.3,22.28c-1.78,4.78-6.39,8-11.49,8-6.75,0-12.25-5.5-12.25-12.25s5.5-12.25,12.25-12.25c4.75,0,9.12,2.79,11.12,7.12l1.36-.63c-2.25-4.85-7.15-7.99-12.48-7.99-7.58,0-13.75,6.17-13.75,13.75s6.17,13.75,13.75,13.75c5.72,0,10.9-3.61,12.89-8.97l-1.41-.52.01-.01Z"/>
  </g>
</svg>