<?xml version="1.0" encoding="UTF-8"?>
<svg id="Illustration" xmlns="http://www.w3.org/2000/svg" width="80" height="80" version="1.1" viewBox="0 0 80 80">
  <!-- Generator: Adobe Illustrator 29.4.0, SVG Export Plug-In . SVG Version: 2.1.0 Build 152)  -->
  <defs>
    <style>
      .st0 {
        fill: #336ecc;
      }

      .st1 {
        fill: #374e80;
      }
    </style>
  </defs>
  <path class="st1" d="M52.55,61.52l-.32-5.12c2.46-2.7,4.13-6.38,4.49-9.92l.14-1.86-.75-.06v-8.66c0-3.38-2.53-6.29-5.88-6.77-7.73-1.09-16.07-4.1-20.36-5.8-1.5-.59-3.2-.41-4.54.49-1.33.89-2.11,2.32-2.13,3.9h.8c.02-1.31.66-2.49,1.77-3.24,1.13-.76,2.55-.91,3.8-.41,5.27,2.09,13.12,4.8,20.54,5.85,2.96.42,5.19,2.98,5.19,5.97v8.87c0,.53-.03,1.06-.08,1.58,0,.1-.03.19-.04.29-.04.33-.09.66-.15.99-.57,2.89-2.06,5.79-4.11,7.96l-.22.24v.02c-2.83,2.82-6.74,4.57-11.04,4.57-5.18,0-9.76-2.54-12.61-6.42-1.33-1.89-2.32-4.14-2.76-6.34-.08-.42-.15-.85-.2-1.28v-.02c-.05-.52-.08-1.05-.08-1.58h-.05l-.02-.28-1.5.12.15,1.93c.36,3.41,2.01,7.12,4.33,9.74l-.18,4.82c-7.53,1.71-13.4,4.95-16.17,8.96l1.23.85c2.57-3.72,8.18-6.76,15.41-8.38l10.5,6.79-2.69,4.5-6.22-6.22-.57.57,6.95,6.95,3.61-6.05-10.61-6.86.21-5.48c2.95,2.77,6.9,4.48,11.25,4.48s8.18-1.66,11.11-4.35l.33,5.29-10.32,6.93,3.61,6.04,6.95-6.95-.57-.57-6.22,6.22-2.69-4.51,9.72-6.53.09.02c6.32,1.59,11.22,4.27,13.79,7.53l1.18-.93c-2.7-3.43-7.69-6.23-14.07-7.92v.04Z"/>
  <g>
    <path class="st0" d="M33,48.6c-1.67,0-3.06,1.22-3.34,2.81h-3.69c-2.88,0-5.22-2.34-5.22-5.22v-.44h1.92c.96,0,1.75-.79,1.75-1.75v-11.33c0-.96-.79-1.75-1.75-1.75h-1.92v-3.78c0-4.23,1-7.84,2.97-10.71l-1.24-.85c-2.15,3.13-3.23,7.02-3.23,11.56v3.86c-1.71.35-3,1.86-3,3.67v7.33c0,1.81,1.29,3.33,3,3.67v.51c0,3.71,3.02,6.72,6.72,6.72h3.77c.4,1.43,1.7,2.49,3.26,2.49,1.87,0,3.4-1.52,3.4-3.4s-1.53-3.4-3.4-3.4v.01ZM17.75,42v-7.33c0-1.24,1.01-2.25,2.25-2.25h2.67c.14,0,.25.11.25.25v11.33c0,.14-.11.25-.25.25h-2.67c-1.24,0-2.25-1.01-2.25-2.25ZM33,54.6c-1.43,0-2.6-1.17-2.6-2.6s1.17-2.6,2.6-2.6,2.6,1.17,2.6,2.6-1.17,2.6-2.6,2.6Z"/>
    <path class="st0" d="M61.13,31.21v-4.08c0-13.27-9.59-18.72-18.56-19.38-.06,0-1.39-.11-2.57-.11-1.1,0-2.51.1-2.57.11-2.81.21-5.41.85-7.74,1.9l.62,1.37c2.17-.98,4.6-1.57,7.23-1.77.01,0,1.41-.1,2.46-.1,1.13,0,2.44.1,2.46.1,8.3.62,17.17,5.64,17.17,17.89v3.78h-2.63c-.96,0-1.75.79-1.75,1.75v11.33c0,.96.79,1.75,1.75,1.75h2.67c2.07,0,3.75-1.68,3.75-3.75v-7.33c0-1.55-.94-2.88-2.29-3.45v-.01ZM61.92,42c0,1.24-1.01,2.25-2.25,2.25h-2.67c-.14,0-.25-.11-.25-.25v-11.33c0-.14.11-.25.25-.25h2.67c1.24,0,2.25,1.01,2.25,2.25v7.33Z"/>
  </g>
</svg>