<?xml version="1.0" encoding="utf-8"?>
<!-- Generator: Adobe Illustrator 26.4.0, SVG Export Plug-In . SVG Version: 6.00 Build 0)  -->
<svg xmlns:xlink="http://www.w3.org/1999/xlink" version="1.1" id="Ebene_1" xmlns="http://www.w3.org/2000/svg" x="0px" y="0px"
	  width="53px" height="34px" viewBox="0 0 53 34" xml:space="preserve"><defs><style>.cls-1{fill:none;}.cls-2{clip-path:url(#clip-path);}.cls-3{fill:#016fd0;}.cls-3,.cls-4{fill-rule:evenodd;}.cls-4{fill:#fff;}</style><clipPath id="clip-path" transform="translate(0 0)"><rect class="cls-1" width="53" height="34" rx="6.09"/></clipPath></defs><g class="cls-2"><g id="surface1"><path class="cls-3" d="M0,0H53V34H0V0" transform="translate(0 0)"/><path class="cls-4" d="M31.34,28.59V16.42l21.66,0V19.8l-2.5,2.67,2.5,2.7v3.44H49l-2.12-2.35-2.11,2.36-13.43,0" transform="translate(0 0)"/><path class="cls-3" d="M32.79,27.25V17.76h8.05v2.18H35.4v1.49h5.31v2.15H35.4V25h5.44v2.21H32.79" transform="translate(0 0)"/><path class="cls-3" d="M40.8,27.25l4.45-4.75L40.8,17.76h3.45l2.72,3,2.73-3H53v.07L48.64,22.5,53,27.12v.13H49.67l-2.77-3-2.75,3H40.8" transform="translate(0 0)"/><path class="cls-4" d="M32.35,5.62h5.22l1.84,4.16V5.62h6.44L47,8.74l1.12-3.12H53V17.79H27L32.35,5.62" transform="translate(0 0)"/><path class="cls-3" d="M33.34,6.94l-4.21,9.49H32l.79-1.9h4.31l.79,1.9h3L36.68,6.94Zm.36,5.46,1.27-3,1.26,3Z" transform="translate(0 0)"/><path class="cls-3" d="M40.84,16.43V6.94H44.9L47,12.78l2.1-5.84H53v9.49l-2.52,0V9.93l-2.37,6.5h-2.3L43.39,9.91v6.52H40.84" transform="translate(0 0)"/></g></g></svg>